<mxfile host="app.diagrams.net" modified="2021-09-26T22:55:19.929Z" agent="5.0 (Windows NT 10.0; Win64; x64) AppleWebKit/537.36 (KHTML, like Gecko) Chrome/93.0.4577.82 Safari/537.36" etag="dYZA6jVYMC5tLoyobCBM" version="15.3.2" type="github">
  <diagram id="hhfNGWsRwdE95GS2wTr0" name="Page-1">
    <mxGraphModel dx="1038" dy="588" grid="1" gridSize="10" guides="1" tooltips="1" connect="1" arrows="1" fold="1" page="1" pageScale="1" pageWidth="827" pageHeight="1169" math="0" shadow="0">
      <root>
        <mxCell id="0" />
        <mxCell id="1" value="Region layer" style="locked=1;" parent="0" />
        <mxCell id="Mvm1oyz63STRThyXKM0V-1" value="" style="rounded=1;whiteSpace=wrap;html=1;strokeColor=#CCCCCC;arcSize=2;fillColor=#f4f3ef;" parent="1" vertex="1">
          <mxGeometry x="20" y="110" width="790" height="660" as="geometry" />
        </mxCell>
        <mxCell id="Mvm1oyz63STRThyXKM0V-2" value="&lt;font color=&quot;#3f3a36&quot; size=&quot;1&quot;&gt;&lt;b style=&quot;font-size: 14px&quot;&gt;Oracle Cloud Infrastructure (Region)&lt;/b&gt;&lt;/font&gt;" style="text;html=1;align=left;verticalAlign=middle;resizable=0;points=[];autosize=1;" parent="1" vertex="1">
          <mxGeometry x="40.00230452674896" y="120" width="260" height="20" as="geometry" />
        </mxCell>
        <mxCell id="Mvm1oyz63STRThyXKM0V-16" value="" style="group" parent="1" vertex="1" connectable="0">
          <mxGeometry x="140" y="120" width="610" height="500" as="geometry" />
        </mxCell>
        <mxCell id="JLlgExNKZI0VBw3Vx1Ag-6" value="&lt;font color=&quot;#3f3a36&quot; size=&quot;1&quot;&gt;&lt;b style=&quot;font-size: 14px&quot;&gt;eu-frankfurt-1&lt;/b&gt;&lt;/font&gt;" style="text;html=1;align=right;verticalAlign=middle;resizable=0;points=[];autosize=1;" parent="1" vertex="1">
          <mxGeometry x="682.002304526749" y="120" width="110" height="20" as="geometry" />
        </mxCell>
        <mxCell id="JLlgExNKZI0VBw3Vx1Ag-58" value="" style="rounded=1;whiteSpace=wrap;html=1;strokeColor=#CCCCCC;arcSize=8;fillColor=#f4f3ef;" parent="1" vertex="1">
          <mxGeometry x="19" y="857" width="790" height="150" as="geometry" />
        </mxCell>
        <mxCell id="JLlgExNKZI0VBw3Vx1Ag-59" value="&lt;font color=&quot;#3f3a36&quot; size=&quot;1&quot;&gt;&lt;span style=&quot;font-size: 14px&quot;&gt;&lt;b&gt;Customer&amp;nbsp;&lt;/b&gt;&lt;br&gt;On-premise DC&lt;/span&gt;&lt;/font&gt;" style="text;html=1;align=left;verticalAlign=middle;resizable=0;points=[];autosize=1;" parent="1" vertex="1">
          <mxGeometry x="33.00230452674896" y="960" width="110" height="40" as="geometry" />
        </mxCell>
        <mxCell id="JLlgExNKZI0VBw3Vx1Ag-60" value="" style="shape=image;verticalLabelPosition=bottom;verticalAlign=top;imageAspect=0;aspect=fixed;image=data:image/svg+xml,PHN2ZyB2ZXJzaW9uPSIxLjEiIGlkPSJDdXN0b21lcl9EYXRhX0NlbnRlcl9BTFQiIHhtbG5zPSJodHRwOi8vd3d3LnczLm9yZy8yMDAwL3N2ZyIgeG1sbnM6eGxpbms9Imh0dHA6Ly93d3cudzMub3JnLzE5OTkveGxpbmsiIHg9IjBweCIgeT0iMHB4IiB2aWV3Qm94PSIwIDAgMTYxLjkgMTYyIiBlbmFibGUtYmFja2dyb3VuZD0ibmV3IDAgMCAxNjEuOSAxNjIiIHhtbDpzcGFjZT0icHJlc2VydmUiPiYjeGE7PGc+JiN4YTsJPHBhdGggZmlsbD0iIzMxMkQyQSIgZD0iTTExNC42LDMzLjlWMTkuM0gzMC45djI2Ljl2OHYxMGMyLjUtMS4yLDUuMi0yLDgtMi40di03LjdoNjcuNnYxOC4ySDYyLjhjMS44LDIuNiwzLjEsNS41LDMuOSw4LjZoMzkuOSAgIHYxOC4ySDY0Yy0xLjgsMy4yLTQuMiw1LjktNy4yLDhoNTcuN1Y5Mi41aDM3LjVWNzUuM3YtNi40VjU3LjZ2LTZWMzMuOUgxMTQuNnogTTEwNi42LDQ2LjFIMzguOVYyNy4zaDY3LjZWNDYuMXogTTE0Ni4xLDg2LjUgICBoLTMxLjVWODF2LTUuN2gzMS41Vjg2LjV6IE0xNDYuMSw2OC45aC0zMS41VjU3LjZoMzEuNVY2OC45eiBNMTQ2LjEsNTEuNmgtMzEuNXYtNS41di02LjJoMzEuNVY1MS42eiIvPiYjeGE7CTxwYXRoIGZpbGw9IiMzMTJEMkEiIGQ9Ik05Ny45LDkwLjRjMC0xLjgtMS41LTMuMy0zLjMtMy4zcy0zLjMsMS41LTMuMywzLjNzMS41LDMuMywzLjMsMy4zUzk3LjksOTIuMiw5Ny45LDkwLjR6Ii8+JiN4YTsJPHBhdGggZmlsbD0iIzMxMkQyQSIgZD0iTTk3LjksNjMuNWMwLTEuOC0xLjUtMy4zLTMuMy0zLjNzLTMuMywxLjUtMy4zLDMuM2MwLDEuOCwxLjUsMy4zLDMuMywzLjNTOTcuOSw2NS40LDk3LjksNjMuNXoiLz4mI3hhOwk8cGF0aCBmaWxsPSIjMzEyRDJBIiBkPSJNOTQuNiw0MC41YzEuOCwwLDMuMy0xLjUsMy4zLTMuM3MtMS41LTMuMy0zLjMtMy4zcy0zLjMsMS41LTMuMywzLjNTOTIuOCw0MC41LDk0LjYsNDAuNXoiLz4mI3hhOwk8cGF0aCBmaWxsPSIjMzEyRDJBIiBkPSJNMTM4LjYsODMuM2MxLjIsMCwyLjItMSwyLjItMi4yYzAtMS4yLTEtMi4yLTIuMi0yLjJzLTIuMiwxLTIuMiwyLjJDMTM2LjQsODIuMywxMzcuNCw4My4zLDEzOC42LDgzLjN6Ii8+JiN4YTsJPGNpcmNsZSBmaWxsPSIjMzEyRDJBIiBjeD0iMTM4LjYiIGN5PSI2My40IiByPSIyLjIiLz4mI3hhOwk8Y2lyY2xlIGZpbGw9IiMzMTJEMkEiIGN4PSIxMzguNiIgY3k9IjQ2LjEiIHI9IjIuMiIvPiYjeGE7CTxwYXRoIGZpbGw9IiMzMTJEMkEiIGQ9Ik00Mi4xLDEwNy4yYzExLjUsMCwyMC44LTkuMywyMC44LTIwLjhzLTkuMy0yMC44LTIwLjgtMjAuOGMtMTEuNSwwLTIwLjgsOS4zLTIwLjgsMjAuOCAgIFMzMC42LDEwNy4yLDQyLjEsMTA3LjJ6IE00Mi4xLDc0LjVjNi41LDAsMTEuOCw1LjMsMTEuOCwxMS44YzAsNi41LTUuMywxMS44LTExLjgsMTEuOHMtMTEuOC01LjMtMTEuOC0xMS44ICAgQzMwLjMsNzkuOCwzNS42LDc0LjUsNDIuMSw3NC41eiIvPiYjeGE7CTxwYXRoIGZpbGw9IiMzMTJEMkEiIGQ9Ik00NSwxMTAuOGgtNS44Yy0xNi41LDAtMzAsMTMuNC0zMCwzMHY1LjhoOXYtNS44YzAtMTEuNiw5LjQtMjEsMjEtMjFINDVjMTEuNiwwLDIxLDkuNCwyMSwyMXY1LjhoOXYtNS44ICAgQzc1LDEyNC4zLDYxLjUsMTEwLjgsNDUsMTEwLjh6Ii8+JiN4YTs8L2c+JiN4YTs8L3N2Zz4=;labelBackgroundColor=#F4F3EF;strokeColor=#F4F3EF;strokeWidth=1;fillColor=#DFDDD9;align=center;" parent="1" vertex="1">
          <mxGeometry x="33" y="910" width="50" height="50" as="geometry" />
        </mxCell>
        <mxCell id="Mvm1oyz63STRThyXKM0V-20" value="Availability domain layer" style="locked=1;" parent="0" />
        <mxCell id="Mvm1oyz63STRThyXKM0V-3" value="" style="rounded=1;whiteSpace=wrap;html=1;strokeColor=#CCCCCC;arcSize=2;fillColor=#DFDDD9;" parent="Mvm1oyz63STRThyXKM0V-20" vertex="1">
          <mxGeometry x="110" y="170" width="191" height="470" as="geometry" />
        </mxCell>
        <mxCell id="Mvm1oyz63STRThyXKM0V-4" value="&lt;font color=&quot;#3f3a36&quot; size=&quot;1&quot;&gt;&lt;b style=&quot;font-size: 13px&quot;&gt;Availability Domain 1&lt;/b&gt;&lt;/font&gt;" style="text;html=1;align=center;verticalAlign=middle;resizable=0;points=[];autosize=1;" parent="Mvm1oyz63STRThyXKM0V-20" vertex="1">
          <mxGeometry x="130.5" y="180" width="150" height="20" as="geometry" />
        </mxCell>
        <mxCell id="JLlgExNKZI0VBw3Vx1Ag-20" value="" style="rounded=1;whiteSpace=wrap;html=1;strokeColor=#CCCCCC;arcSize=2;fillColor=#DFDDD9;" parent="Mvm1oyz63STRThyXKM0V-20" vertex="1">
          <mxGeometry x="311" y="170" width="191" height="470" as="geometry" />
        </mxCell>
        <mxCell id="JLlgExNKZI0VBw3Vx1Ag-21" value="&lt;font color=&quot;#3f3a36&quot; size=&quot;1&quot;&gt;&lt;b style=&quot;font-size: 13px&quot;&gt;Availability Domain 2&lt;/b&gt;&lt;/font&gt;" style="text;html=1;align=center;verticalAlign=middle;resizable=0;points=[];autosize=1;" parent="Mvm1oyz63STRThyXKM0V-20" vertex="1">
          <mxGeometry x="331.5" y="180" width="150" height="20" as="geometry" />
        </mxCell>
        <mxCell id="JLlgExNKZI0VBw3Vx1Ag-22" value="" style="rounded=1;whiteSpace=wrap;html=1;strokeColor=#CCCCCC;arcSize=2;fillColor=#DFDDD9;" parent="Mvm1oyz63STRThyXKM0V-20" vertex="1">
          <mxGeometry x="511" y="170" width="191" height="470" as="geometry" />
        </mxCell>
        <mxCell id="JLlgExNKZI0VBw3Vx1Ag-23" value="&lt;font color=&quot;#3f3a36&quot; size=&quot;1&quot;&gt;&lt;b style=&quot;font-size: 13px&quot;&gt;Availability Domain 3&lt;/b&gt;&lt;/font&gt;" style="text;html=1;align=center;verticalAlign=middle;resizable=0;points=[];autosize=1;" parent="Mvm1oyz63STRThyXKM0V-20" vertex="1">
          <mxGeometry x="531.5" y="180" width="150" height="20" as="geometry" />
        </mxCell>
        <mxCell id="Mvm1oyz63STRThyXKM0V-18" value="Networking layer" style="locked=1;" parent="0" />
        <mxCell id="Mvm1oyz63STRThyXKM0V-7" value="&lt;font color=&quot;#bc7450&quot;&gt;&lt;span style=&quot;font-size: 13px&quot;&gt;&lt;b&gt;Virtual Cloud Network&lt;/b&gt;&lt;/span&gt;&lt;/font&gt;" style="text;html=1;align=center;verticalAlign=middle;resizable=0;points=[];autosize=1;rotation=-90;" parent="Mvm1oyz63STRThyXKM0V-18" vertex="1">
          <mxGeometry x="-30" y="550" width="150" height="20" as="geometry" />
        </mxCell>
        <mxCell id="Mvm1oyz63STRThyXKM0V-6" value="" style="rounded=0;whiteSpace=wrap;html=1;fillColor=none;dashed=1;strokeWidth=2;strokeColor=#BC7450;" parent="Mvm1oyz63STRThyXKM0V-18" vertex="1">
          <mxGeometry x="56" y="211.5" width="694" height="418.5" as="geometry" />
        </mxCell>
        <mxCell id="Mvm1oyz63STRThyXKM0V-8" value="" style="rounded=0;whiteSpace=wrap;html=1;fillColor=none;dashed=1;strokeWidth=2;strokeColor=#BC7450;dashPattern=1 1;" parent="Mvm1oyz63STRThyXKM0V-18" vertex="1">
          <mxGeometry x="102" y="223" width="610" height="270" as="geometry" />
        </mxCell>
        <mxCell id="Mvm1oyz63STRThyXKM0V-32" value="&lt;font color=&quot;#bc7450&quot;&gt;&lt;span style=&quot;font-size: 13px&quot;&gt;Public subnet&lt;/span&gt;&lt;/font&gt;" style="text;html=1;align=center;verticalAlign=middle;resizable=0;points=[];autosize=1;rotation=-90;" parent="Mvm1oyz63STRThyXKM0V-18" vertex="1">
          <mxGeometry x="45" y="434" width="90" height="20" as="geometry" />
        </mxCell>
        <mxCell id="Mvm1oyz63STRThyXKM0V-35" value="" style="shape=image;verticalLabelPosition=bottom;verticalAlign=top;imageAspect=0;aspect=fixed;image=data:image/svg+xml,PHN2ZyB2ZXJzaW9uPSIxLjEiIGlkPSJEUkciIHhtbG5zPSJodHRwOi8vd3d3LnczLm9yZy8yMDAwL3N2ZyIgeG1sbnM6eGxpbms9Imh0dHA6Ly93d3cudzMub3JnLzE5OTkveGxpbmsiIHg9IjBweCIgeT0iMHB4IiB2aWV3Qm94PSIwIDAgMTYxLjkgMTYyIiBlbmFibGUtYmFja2dyb3VuZD0ibmV3IDAgMCAxNjEuOSAxNjIiIHhtbDpzcGFjZT0icHJlc2VydmUiPiYjeGE7PHBhdGggZmlsbD0iIzMxMkQyQSIgZD0iTTE1My41LDY4LjJjMC0xMC41LTguNS0xOS0xOS0xOWMtMy45LDAtNy41LDEuMi0xMC41LDMuMkw5OC43LDMzLjljMC4zLTEuNCwwLjUtMi44LDAuNS00LjMgIGMwLTEwLjUtOC41LTE5LTE5LTE5cy0xOSw4LjUtMTksMTljMCwxLjcsMC4yLDMuMywwLjcsNC45TDM3LjcsNTIuMWMtMi45LTEuOC02LjQtMi45LTEwLTIuOWMtMTAuNSwwLTE5LDguNS0xOSwxOSAgYzAsMTAsNy43LDE4LjEsMTcuNSwxOC45bDkuMiwyOC4yYy00LjgsMy41LTgsOS4xLTgsMTUuNGMwLDEwLjUsOC41LDE5LDE5LDE5YzcuOSwwLDE0LjgtNC45LDE3LjYtMTEuOWgzNC4zICBjMi44LDYuOSw5LjYsMTEuOSwxNy42LDExLjljMTAuNSwwLDE5LTguNSwxOS0xOWMwLTYuNy0zLjUtMTIuNS04LjctMTUuOWw5LTI3LjdDMTQ1LjMsODYuOCwxNTMuNSw3OC40LDE1My41LDY4LjJ6IE0xMzQuNSw1OS4yICBjNSwwLDksNCw5LDlzLTQsOS05LDlzLTktNC05LTlTMTI5LjYsNTkuMiwxMzQuNSw1OS4yeiBNMTE4LjQsNTguMmMtMS44LDIuOS0yLjksNi4zLTIuOSwxMGMwLDAuNiwwLDEuMiwwLjEsMS44TDk2LjcsNzYgIGMtMi42LTQuNS02LjktNy44LTEyLTkuMVY0OC4xYzQuMi0xLDcuOS0zLjUsMTAuNS02LjhMMTE4LjQsNTguMnogTTYwLjgsMTE4LjRsMTEuOS0xNS42YzIuMywxLDQuOCwxLjUsNy41LDEuNSAgYzMuMiwwLDYuMi0wLjgsOC44LTIuMmwxMi40LDE2LjJjLTIuNywzLjEtNC4zLDcuMS00LjUsMTEuNUg2NS4zQzY1LjEsMTI1LjUsNjMuNCwxMjEuNSw2MC44LDExOC40eiBNODAuMiw3Ni40YzUsMCw5LDQsOSw5ICBzLTQsOS05LDljLTUsMC05LTQtOS05Uzc1LjIsNzYuNCw4MC4yLDc2LjR6IE04MC4yLDIwLjZjNSwwLDksNCw5LDlzLTQsOS05LDljLTUsMC05LTQtOS05Uzc1LjIsMjAuNiw4MC4yLDIwLjZ6IE03Ni43LDQ4LjN2MTguNCAgYy01LjMsMS05LjksNC4yLTEyLjYsOC43bC0xNy40LTYuMWMwLTAuNCwwLjEtMC44LDAuMS0xLjJjMC0zLjktMS4yLTcuNC0zLjEtMTAuNGwyMi0xNkM2OC4zLDQ1LjEsNzIuMiw0Ny41LDc2LjcsNDguM3ogTTE4LjcsNjguMiAgYzAtNSw0LTksOS05czksNCw5LDlzLTQsOS05LDlTMTguNyw3My4xLDE4LjcsNjguMnogTTM0LjIsODZjNC40LTEuNiw4LjEtNC44LDEwLjMtOC45TDYxLjMsODNjLTAuMSwwLjgtMC4yLDEuNi0wLjIsMi40ICBjMCw0LjksMS45LDkuNCw1LDEyLjhsLTExLjgsMTUuNGMtMi41LTEuMi01LjItMS44LTguMS0xLjhjLTEuMywwLTIuNSwwLjEtMy43LDAuNEwzNC4yLDg2eiBNNDYuMywxMzkuOGMtNSwwLTktNC05LTlzNC05LDktOSAgczksNCw5LDlTNTEuMywxMzkuOCw0Ni4zLDEzOS44eiBNMTE1LjgsMTM5LjhjLTUsMC05LTQtOS05czQtOSw5LTlzOSw0LDksOVMxMjAuOCwxMzkuOCwxMTUuOCwxMzkuOHogTTExNS44LDExMS43ICBjLTIuOSwwLTUuNiwwLjctOC4xLDEuOEw5NS4xLDk3LjFjMi41LTMuMiw0LTcuMyw0LTExLjdjMC0wLjYsMC0xLjItMC4xLTEuN2wxOC45LTYuMWMyLjEsMy42LDUuMyw2LjUsOS4yLDguMmwtOC41LDI2LjMgIEMxMTcuOCwxMTEuOCwxMTYuOCwxMTEuNywxMTUuOCwxMTEuN3oiLz4mI3hhOzwvc3ZnPg==;dashed=1;dashPattern=1 1;strokeColor=#BC7450;strokeWidth=2;fillColor=none;imageBackground=#F4F3EF;" parent="Mvm1oyz63STRThyXKM0V-18" vertex="1">
          <mxGeometry x="40" y="193" width="40" height="40" as="geometry" />
        </mxCell>
        <mxCell id="JLlgExNKZI0VBw3Vx1Ag-43" style="edgeStyle=orthogonalEdgeStyle;rounded=0;orthogonalLoop=1;jettySize=auto;html=1;exitX=0;exitY=0.5;exitDx=0;exitDy=0;entryX=1;entryY=0.5;entryDx=0;entryDy=0;endArrow=none;endFill=0;" parent="Mvm1oyz63STRThyXKM0V-18" source="Mvm1oyz63STRThyXKM0V-38" target="JLlgExNKZI0VBw3Vx1Ag-42" edge="1">
          <mxGeometry relative="1" as="geometry" />
        </mxCell>
        <mxCell id="JLlgExNKZI0VBw3Vx1Ag-50" style="edgeStyle=orthogonalEdgeStyle;rounded=1;orthogonalLoop=1;jettySize=auto;html=1;exitX=1;exitY=0.5;exitDx=0;exitDy=0;entryX=1;entryY=0.5;entryDx=0;entryDy=0;endArrow=none;endFill=0;" parent="Mvm1oyz63STRThyXKM0V-18" source="Mvm1oyz63STRThyXKM0V-38" target="Mvm1oyz63STRThyXKM0V-39" edge="1">
          <mxGeometry relative="1" as="geometry" />
        </mxCell>
        <mxCell id="Mvm1oyz63STRThyXKM0V-38" value="Dynamic&#xa;Routing&#xa;Gateway" style="shape=image;verticalLabelPosition=bottom;verticalAlign=top;imageAspect=0;aspect=fixed;image=data:image/svg+xml,PHN2ZyB2ZXJzaW9uPSIxLjEiIGlkPSJEUkciIHhtbG5zPSJodHRwOi8vd3d3LnczLm9yZy8yMDAwL3N2ZyIgeG1sbnM6eGxpbms9Imh0dHA6Ly93d3cudzMub3JnLzE5OTkveGxpbmsiIHg9IjBweCIgeT0iMHB4IiB2aWV3Qm94PSIwIDAgMTYxLjkgMTYyIiBlbmFibGUtYmFja2dyb3VuZD0ibmV3IDAgMCAxNjEuOSAxNjIiIHhtbDpzcGFjZT0icHJlc2VydmUiPiYjeGE7PGc+JiN4YTsJPHBhdGggZmlsbD0iIzMxMkQyQSIgZD0iTTYyLjUsMTI2LjZoLTUuN3YxNS44aDUuN2MyLjYsMCw0LjUtMC43LDUuOS0yYzEuMy0xLjMsMi0zLjMsMi01LjljMC0yLjYtMC43LTQuNi0yLTUuOSAgIEM2NywxMjcuMiw2NSwxMjYuNiw2Mi41LDEyNi42eiBNNjUsMTM3LjljLTAuNiwwLjgtMS40LDEuMS0yLjYsMS4xSDYxdi05LjJoMS4zYzEuMiwwLDIuMSwwLjQsMi42LDEuMWMwLjYsMC44LDAuOSwxLjksMC45LDMuNSAgIEM2NS44LDEzNiw2NS41LDEzNy4yLDY1LDEzNy45eiIvPiYjeGE7CTxwYXRoIGZpbGw9IiMzMTJEMkEiIGQ9Ik04Ny4yLDEzNC41YzAuNi0wLjcsMC44LTEuNiwwLjgtMi43YzAtMS42LTAuNS0yLjktMS42LTMuOGMtMS4xLTAuOS0yLjYtMS40LTQuNS0xLjRoLTYuNXYxNS44aDQuMnYtNS44ICAgbDEuNiwwLjVsMi45LDUuM2g0LjVsLTMuOC02LjNDODUuOSwxMzUuNyw4Ni42LDEzNS4yLDg3LjIsMTM0LjV6IE04My4yLDEzMy40Yy0wLjQsMC4zLTEuMiwwLjUtMi4yLDAuNWgtMS4zdi00LjFIODEgICBjMSwwLDEuNywwLjIsMi4yLDAuNWMwLjQsMC4zLDAuNywwLjgsMC43LDEuNlM4My42LDEzMy4xLDgzLjIsMTMzLjR6Ii8+JiN4YTsJPHBhdGggZmlsbD0iIzMxMkQyQSIgZD0iTTEwMC4yLDEzNS44bDIuNCwxdjIuM2MtMC41LDAuMS0wLjksMC4xLTEuMywwLjFjLTEuNSwwLTIuNi0wLjQtMy4zLTEuMmMtMC43LTAuOC0xLjEtMi0xLjEtMy42ICAgYzAtMS40LDAuNC0yLjUsMS4zLTMuM2MwLjgtMC44LDItMS4yLDMuNC0xLjJjMC42LDAsMS4xLDAsMS43LDAuMWMwLjYsMC4xLDEuMiwwLjIsMS45LDAuNHYtMy40Yy0xLTAuNC0yLjMtMC43LTMuOC0wLjcgICBjLTEuOSwwLTMuNCwwLjMtNC44LDFjLTEuMywwLjYtMi4zLDEuNi0zLjEsMi44Yy0wLjcsMS4yLTEuMSwyLjYtMS4xLDQuM2MwLDIuNywwLjcsNC44LDIuMSw2LjJjMS40LDEuNSwzLjUsMi4yLDYuMiwyLjIgICBjMSwwLDEuOS0wLjEsMi44LTAuM2MwLjktMC4yLDEuOC0wLjUsMi42LTAuOHYtOGgtNi4yVjEzNS44eiIvPiYjeGE7CTxwb2x5Z29uIGZpbGw9IiMzMTJEMkEiIHBvaW50cz0iODUuNiw1Mi44IDkwLjYsNTIuOCA4MS4xLDM1LjYgNzEuNyw1Mi44IDc2LjYsNTIuOCA3Ni42LDg2LjUgNzEuNyw4Ni41IDgxLjEsMTAzLjcgOTAuNSw4Ni41ICAgIDg1LjYsODYuNSAgIi8+JiN4YTsJPHBhdGggZmlsbD0iIzMxMkQyQSIgZD0iTTgxLDE5QzUzLjQsMTksMzEsNDEuNywzMSw2OS44YzAsMjgsMjIuNSw1MC44LDUwLjEsNTAuOHM1MC4xLTIyLjgsNTAuMS01MC44QzEzMS4xLDQxLjcsMTA4LjcsMTksODEsMTl6ICAgIE04MSwxMTEuNmMtMjEuMiwwLTM4LjctMTYuNC00MC44LTM3LjRoMTcuOXY1LjZsMTcuMi05LjVsLTE3LjItOS40djQuM0g0MC4yQzQyLjUsNDQuMyw1OS45LDI4LDgxLDI4YzIxLjIsMCwzOC43LDE2LjQsNDAuOCwzNy40ICAgaC0xNi43di00LjlMODgsNjkuOWwxNy4yLDkuNHYtNC45aDE2LjdDMTE5LjYsOTUuMiwxMDIuMiwxMTEuNiw4MSwxMTEuNnoiLz4mI3hhOzwvZz4mI3hhOzwvc3ZnPg==;dashed=1;dashPattern=1 1;strokeColor=#BC7450;strokeWidth=2;fillColor=#DFDDD9;labelBackgroundColor=#F4F3EF;imageBackground=#F4F3EF;" parent="Mvm1oyz63STRThyXKM0V-18" vertex="1">
          <mxGeometry x="726" y="424" width="50" height="50" as="geometry" />
        </mxCell>
        <mxCell id="JLlgExNKZI0VBw3Vx1Ag-67" style="edgeStyle=orthogonalEdgeStyle;rounded=0;orthogonalLoop=1;jettySize=auto;html=1;exitX=1;exitY=0.5;exitDx=0;exitDy=0;entryX=0.5;entryY=1;entryDx=0;entryDy=0;endArrow=none;endFill=0;" parent="Mvm1oyz63STRThyXKM0V-18" target="Mvm1oyz63STRThyXKM0V-39" edge="1">
          <mxGeometry relative="1" as="geometry">
            <mxPoint x="555" y="919.5" as="sourcePoint" />
            <mxPoint x="675" y="892" as="targetPoint" />
          </mxGeometry>
        </mxCell>
        <mxCell id="JLlgExNKZI0VBw3Vx1Ag-94" value="" style="rounded=0;whiteSpace=wrap;html=1;fillColor=none;dashed=1;strokeWidth=2;strokeColor=#BC7450;dashPattern=1 1;" parent="Mvm1oyz63STRThyXKM0V-18" vertex="1">
          <mxGeometry x="102" y="500" width="610" height="110" as="geometry" />
        </mxCell>
        <mxCell id="JLlgExNKZI0VBw3Vx1Ag-95" value="&lt;font color=&quot;#bc7450&quot;&gt;&lt;span style=&quot;font-size: 13px&quot;&gt;Private subnet&lt;/span&gt;&lt;/font&gt;" style="text;html=1;align=center;verticalAlign=middle;resizable=0;points=[];autosize=1;rotation=-90;" parent="Mvm1oyz63STRThyXKM0V-18" vertex="1">
          <mxGeometry x="42" y="549" width="100" height="20" as="geometry" />
        </mxCell>
        <mxCell id="5z3BjopYQKt2J5N__x-G-5" value="Internet&#xa;Gateway" style="shape=image;verticalLabelPosition=bottom;verticalAlign=top;imageAspect=0;aspect=fixed;image=data:image/svg+xml,PHN2ZyB2ZXJzaW9uPSIxLjEiIGlkPSJJbnRlcm5ldF9HYXRld2F5IiB4bWxucz0iaHR0cDovL3d3dy53My5vcmcvMjAwMC9zdmciIHhtbG5zOnhsaW5rPSJodHRwOi8vd3d3LnczLm9yZy8xOTk5L3hsaW5rIiB4PSIwcHgiIHk9IjBweCIgdmlld0JveD0iMCAwIDE2MS45IDE2MiIgZW5hYmxlLWJhY2tncm91bmQ9Im5ldyAwIDAgMTYxLjkgMTYyIiB4bWw6c3BhY2U9InByZXNlcnZlIj4mI3hhOzxnPiYjeGE7CTxyZWN0IHg9Ijc3LjQiIHk9IjcxLjkiIGZpbGw9IiMzMTJEMkEiIHdpZHRoPSI2LjMiIGhlaWdodD0iMi44Ii8+JiN4YTsJPHJlY3QgeD0iNzcuNCIgeT0iNjYuMyIgZmlsbD0iIzMxMkQyQSIgd2lkdGg9IjYuMyIgaGVpZ2h0PSIyLjgiLz4mI3hhOwk8cGF0aCBmaWxsPSIjMzEyRDJBIiBkPSJNMTA0LjcsMjkuNGMtMi40LTQuNy03LjktMTAuMi0xNy4zLTguOGMtMy41LTMuNS0xMC4yLTcuNC0xOC44LTQuOWMtMS40LDAuMy03LjgsMi40LTExLjEsMTAuNSAgIEM1MiwyNy41LDQ0LjEsMzIsNDIuMiw0Mi44bDAsMC4yYzAsMC4zLTEsOC4xLDMuOSwxNC4xYzMuMSwzLjgsNy43LDUuOSwxMy42LDYuNGwwLjEsMGw0Mi41LDBjMC4xLDAsMC4yLDAsMC4yLDAgICBjNSwwLDE0LjgtMy4zLDE2LjktMTYuMmwwLTAuNEMxMTkuOSw0MS42LDExNy4xLDMxLjYsMTA0LjcsMjkuNHogTTEwMi40LDU1LjlIODMuNXYtOS40aDkuNEw4MC40LDMwLjRMNjguMyw0Ni42aDguOXY5LjRINjAuMSAgIGMtMy43LTAuMy02LjQtMS41LTguMS0zLjZjLTIuNy0zLjItMi40LTcuOC0yLjMtOC40YzEuOC05LjYsMTAtMTAuNiwxMC45LTEwLjdsMi42LTAuMmwwLjctMi41YzEuOC02LjQsNi4yLTcuNSw2LjMtNy41bDAuMy0wLjEgICBjNy41LTIuMiwxMS44LDMuMywxMi4yLDMuOWwxLjUsMi4ybDIuNS0wLjdjOC41LTIuMiwxMS4xLDQuMywxMS42LDUuNmwwLjgsMi40bDIuNSwwLjJjOS44LDAuOCwxMC4zLDcuOSwxMC4zLDkuNiAgIEMxMTAuMyw1NS43LDEwMy4zLDU1LjksMTAyLjQsNTUuOXoiLz4mI3hhOwk8cG9seWdvbiBmaWxsPSIjMzEyRDJBIiBwb2ludHM9Ijc0LjMsMTAwLjYgNzcuNSwxMDAuNiA3Ny41LDEyMy40IDc0LjIsMTIzLjQgODAuNiwxMzUgODcsMTIzLjQgODMuOCwxMjMuNCA4My44LDEwMC42IDg3LDEwMC42ICAgIDgwLjYsODkuMSAgIi8+JiN4YTsJPHBhdGggZmlsbD0iIzMxMkQyQSIgZD0iTTgwLjUsNzcuMWMtMTksMC0zNC41LDE1LjctMzQuNSwzNXMxNS41LDM1LDM0LjUsMzVjMTksMCwzNC41LTE1LjcsMzQuNS0zNVM5OS41LDc3LjEsODAuNSw3Ny4xeiAgICBNODYuNCwxMTIuMWwxMS42LDYuNHYtMy4yaDkuMmMtMS41LDEzLjctMTMsMjQuNC0yNi44LDI0LjRjLTEzLjksMC0yNS4zLTEwLjctMjYuOC0yNC40aDkuN3YzLjJMNzUsMTEybC0xMS42LTYuNHYzLjJoLTkuNyAgIGMxLjYtMTMuNiwxMy0yNC4zLDI2LjgtMjQuM2MxMy44LDAsMjUuMiwxMC42LDI2LjgsMjQuM0g5OHYtMy4yTDg2LjQsMTEyLjF6Ii8+JiN4YTs8L2c+JiN4YTs8L3N2Zz4=;imageBackground=#F4F3EF;labelBackgroundColor=#F4F3EF;" parent="Mvm1oyz63STRThyXKM0V-18" vertex="1">
          <mxGeometry x="716" y="267" width="69" height="69" as="geometry" />
        </mxCell>
        <mxCell id="5z3BjopYQKt2J5N__x-G-7" value="" style="group" parent="Mvm1oyz63STRThyXKM0V-18" vertex="1" connectable="0">
          <mxGeometry x="455" y="412" width="104" height="74" as="geometry" />
        </mxCell>
        <mxCell id="JLlgExNKZI0VBw3Vx1Ag-42" value="" style="rounded=1;whiteSpace=wrap;html=1;labelBackgroundColor=none;strokeWidth=1;align=center;fontColor=#333333;fillColor=#DFDDD9;strokeColor=#F4F3EF;" parent="5z3BjopYQKt2J5N__x-G-7" vertex="1">
          <mxGeometry width="104" height="74" as="geometry" />
        </mxCell>
        <mxCell id="JLlgExNKZI0VBw3Vx1Ag-41" value="Private &#xa;Loadbalancer" style="shape=image;verticalLabelPosition=bottom;verticalAlign=top;imageAspect=0;aspect=fixed;image=data:image/svg+xml,PHN2ZyB2ZXJzaW9uPSIxLjEiIGlkPSJMb2FkX0JhbGFuY2VyIiB4bWxucz0iaHR0cDovL3d3dy53My5vcmcvMjAwMC9zdmciIHhtbG5zOnhsaW5rPSJodHRwOi8vd3d3LnczLm9yZy8xOTk5L3hsaW5rIiB4PSIwcHgiIHk9IjBweCIgdmlld0JveD0iMCAwIDE2MS45IDE2MiIgZW5hYmxlLWJhY2tncm91bmQ9Im5ldyAwIDAgMTYxLjkgMTYyIiB4bWw6c3BhY2U9InByZXNlcnZlIj4mI3hhOzxwYXRoIGZpbGw9IiMzMTJEMkEiIGQ9Ik0xMjIuNSwxMTIuOEw5Mi42LDg0LjdoMzYuMnY2LjZsMTgtOS45bC0xOC05Ljl2NS4ySDkyLjNsMzAuMi0yOC40bDQuMSw0LjRsNi4zLTE5LjZMMTEzLDM4LjJsNCw0LjIgIEw4OCw2OS43VjMwLjZIMjguOHY0Ni4xSDExLjF2OGgxNy43djQ2LjlIODhWOTEuM2wyOSwyNy4zbC00LDQuMmwxOS45LDUuMWwtNi4zLTE5LjZMMTIyLjUsMTEyLjh6IE03OSwxMjIuNUgzNy44Vjg0LjdoMjIuN3Y2LjYgIGwxOC05LjlsLTE4LTkuOXY1LjJIMzcuOFYzOS42SDc5VjEyMi41eiIvPiYjeGE7PC9zdmc+;dashed=1;dashPattern=1 4;labelBackgroundColor=none;strokeColor=#03698d;strokeWidth=2;fillColor=none;align=center;imageBackground=#DFDDD9;" parent="5z3BjopYQKt2J5N__x-G-7" vertex="1">
          <mxGeometry x="37" y="3" width="32" height="32" as="geometry" />
        </mxCell>
        <mxCell id="Mvm1oyz63STRThyXKM0V-39" value="VPN Connect" style="shape=image;verticalLabelPosition=bottom;verticalAlign=top;imageAspect=0;aspect=fixed;image=data:image/svg+xml,PHN2ZyB2ZXJzaW9uPSIxLjEiIGlkPSJWUE4iIHhtbG5zPSJodHRwOi8vd3d3LnczLm9yZy8yMDAwL3N2ZyIgeG1sbnM6eGxpbms9Imh0dHA6Ly93d3cudzMub3JnLzE5OTkveGxpbmsiIHg9IjBweCIgeT0iMHB4IiB2aWV3Qm94PSIwIDAgMTYxLjkgMTYyIiBlbmFibGUtYmFja2dyb3VuZD0ibmV3IDAgMCAxNjEuOSAxNjIiIHhtbDpzcGFjZT0icHJlc2VydmUiPiYjeGE7PHBhdGggZmlsbD0iIzMxMkQyQSIgZD0iTTkyLjMsMTExLjhINjkuNWwyLjctMTkuNGMtMy40LTIuNi01LjMtNi42LTUuMy0xMC45YzAtNy44LDYuMy0xNC4xLDE0LjEtMTQuMWM3LjgsMCwxNC4xLDYuMywxNC4xLDE0LjEgIGwwLDAuMWMtMC4xLDQuMi0yLDguMS01LjMsMTAuOEw5Mi4zLDExMS44eiBNNzYuNCwxMDUuOGg5LjFsLTIuMi0xNi40bDEuNy0xYzIuNS0xLjUsNC00LjEsNC4xLTYuOWMwLTQuNC0zLjctOC04LjEtOCAgYy00LjQsMC04LjEsMy42LTguMSw4LjFjMCwyLjksMS41LDUuNCw0LDYuOWwxLjcsMUw3Ni40LDEwNS44eiBNMTQ2LjcsODAuOEwxMjYsNjQuNHYxMy40aC02LjNsMC0yNC43aC0xMy42di01LjIgIGMwLTEzLjQtMTEuMy0yNC4zLTI1LjItMjQuM2MtMTMuOSwwLTI1LjIsMTAuOS0yNS4yLDI0LjN2NS4ySDQyLjJ2MjQuN2gtNi41VjY0LjRMMTUsODAuOGwyMC43LDE2LjZWODQuOGg2LjV2MzEuMUw4MSwxMzMuMiAgbDM4LjYtMTguM2wwLTMwLjFoNi4zdjEyLjZMMTQ2LjcsODAuOHogTTEzMSw3NC43bDcuNyw2LjFMMTMxLDg3Vjc0Ljd6IE0zMC43LDg3TDIzLDgwLjhsNy43LTYuMVY4N3ogTTYzLjgsNDcuOSAgYzAtOSw3LjctMTYuMywxNy4yLTE2LjNzMTcuMiw3LjMsMTcuMiwxNi4zdjUuMkg2My44VjQ3Ljl6IE0xMTEuNiwxMDkuOGwtMzAuNywxNC42bC0zMC43LTEzLjdWNjEuMWg2MS41TDExMS42LDEwOS44eiBNMTA3LjksNzYuOCAgaC0zLjd2OWgzLjdWNzYuOHogTTEwMC45LDc2LjhoLTMuN3Y5aDMuN1Y3Ni44eiBNNjQuMSw3Ni44aC0zLjd2OWgzLjdWNzYuOHogTTU3LjEsNzYuOGgtMy43djloMy43Vjc2Ljh6Ii8+JiN4YTs8L3N2Zz4=;dashed=1;dashPattern=1 1;strokeColor=#BC7450;strokeWidth=2;fillColor=#DFDDD9;labelBackgroundColor=#F4F3EF;labelBorderColor=none;" parent="Mvm1oyz63STRThyXKM0V-18" vertex="1">
          <mxGeometry x="650" y="690" width="50" height="50" as="geometry" />
        </mxCell>
        <mxCell id="Mvm1oyz63STRThyXKM0V-19" value="Compute &amp; service layer" style="locked=1;" parent="0" />
        <mxCell id="JLlgExNKZI0VBw3Vx1Ag-101" style="edgeStyle=orthogonalEdgeStyle;orthogonalLoop=1;jettySize=auto;html=1;exitX=0.5;exitY=1;exitDx=0;exitDy=0;entryX=0;entryY=0.5;entryDx=0;entryDy=0;startArrow=none;startFill=0;endArrow=none;endFill=0;strokeColor=#330000;" parent="Mvm1oyz63STRThyXKM0V-19" source="JLlgExNKZI0VBw3Vx1Ag-44" target="JLlgExNKZI0VBw3Vx1Ag-42" edge="1">
          <mxGeometry relative="1" as="geometry" />
        </mxCell>
        <mxCell id="JLlgExNKZI0VBw3Vx1Ag-36" value="" style="rounded=0;whiteSpace=wrap;html=1;labelBackgroundColor=#F4F3EF;align=center;strokeColor=#03698d;fillColor=none;strokeWidth=2;dashed=1;dashPattern=1 4;" parent="Mvm1oyz63STRThyXKM0V-19" vertex="1">
          <mxGeometry x="150" y="243" width="510" height="160" as="geometry" />
        </mxCell>
        <mxCell id="JLlgExNKZI0VBw3Vx1Ag-30" value="Resource&#xa;Manager" style="shape=image;verticalLabelPosition=bottom;verticalAlign=top;imageAspect=0;aspect=fixed;image=data:image/svg+xml,PHN2ZyB2ZXJzaW9uPSIxLjEiIGlkPSJSZXNvdXJjZV9NYW5hZ2VtZW50X0FMVCIgeG1sbnM9Imh0dHA6Ly93d3cudzMub3JnLzIwMDAvc3ZnIiB4bWxuczp4bGluaz0iaHR0cDovL3d3dy53My5vcmcvMTk5OS94bGluayIgeD0iMHB4IiB5PSIwcHgiIHZpZXdCb3g9IjAgMCAxNjEuOSAxNjIiIGVuYWJsZS1iYWNrZ3JvdW5kPSJuZXcgMCAwIDE2MS45IDE2MiIgeG1sOnNwYWNlPSJwcmVzZXJ2ZSI+JiN4YTs8cGF0aCBmaWxsPSIjMzEyRDJBIiBkPSJNOSw3Ny43YzUuNS0xLDYuNi0zLDYuNi0xMi45VjQxLjVjMC04LjUsNS42LTEzLjIsMTUuOS0xMy4yaDYuN3Y3LjFoLTMuNWMtNy40LDAtMTAsMi0xMCw3Ljh2MTkuOSAgYzAsMTMuMi0wLjksMTUuNi02LjMsMTcuOGM1LjUsMi41LDYuMyw0LjgsNi4zLDE4djE5LjljMCw1LjgsMi42LDcuOCwxMCw3LjhoMy41djcuMWgtNi43Yy0xMC4zLDAtMTUuOS00LjctMTUuOS0xMy4yVjk3LjEgIGMwLTkuOC0xLjEtMTEuOC02LjYtMTIuOFY3Ny43eiBNMTUzLjEsNzcuOWMtNS41LTEtNi42LTMtNi42LTEyLjlWNDEuN2MwLTguNS01LjYtMTMuMi0xNS45LTEzLjJoLTYuN3Y3LjFoMy41YzcuNCwwLDEwLDIsMTAsNy44ICB2MTkuOWMwLDEzLjIsMC45LDE1LjYsNi4zLDE3LjhjLTUuNSwyLjUtNi4zLDQuOC02LjMsMTh2MTkuOWMwLDUuOC0yLjYsNy44LTEwLDcuOGgtMy41djcuMWg2LjdjMTAuMywwLDE1LjktNC43LDE1LjktMTMuMlY5Ny4yICBjMC05LjgsMS4xLTExLjgsNi42LTEyLjhWNzcuOXogTTEwMy4zLDEwMC40Yy0yLjMsMC00LjIsMS45LTQuMiw0LjJjMCwyLjMsMS45LDQuMiw0LjIsNC4yczQuMi0xLjksNC4yLTQuMiAgQzEwNy40LDEwMi4yLDEwNS42LDEwMC40LDEwMy4zLDEwMC40eiBNMTAzLjMsNzcuN2MtMi4zLDAtNC4yLDEuOS00LjIsNC4yczEuOSw0LjIsNC4yLDQuMnM0LjItMS45LDQuMi00LjJTMTA1LjYsNzcuNywxMDMuMyw3Ny43eiAgIE0zNy41LDQyLjV2MjMuMnY5djEzLjd2OS41djIyLjdoODcuMVY5Ny45di05LjVWNzQuN3YtOVY0Mi41SDM3LjV6IE0xMTUuNiwxMTEuNUg0Ni41Vjk3LjloNjkuMVYxMTEuNXogTTExNS42LDg4LjRINDYuNVY3NC43ICBoNjkuMVY4OC40eiBNNDYuNSw2NS43VjUxLjVoNjkuMXYxNC4ySDQ2LjV6IE0xMDMuMyw1NC41Yy0yLjMsMC00LjIsMS45LTQuMiw0LjJjMCwyLjMsMS45LDQuMiw0LjIsNC4yczQuMi0xLjksNC4yLTQuMiAgQzEwNy40LDU2LjQsMTA1LjYsNTQuNSwxMDMuMyw1NC41eiIvPiYjeGE7PC9zdmc+;align=center;labelBackgroundColor=#F4F3EF;" parent="Mvm1oyz63STRThyXKM0V-19" vertex="1">
          <mxGeometry x="50" y="668.5" width="46" height="46" as="geometry" />
        </mxCell>
        <mxCell id="JLlgExNKZI0VBw3Vx1Ag-32" value="node-1 (VM)" style="shape=image;verticalLabelPosition=bottom;verticalAlign=top;imageAspect=0;aspect=fixed;image=data:image/svg+xml,PHN2ZyB2ZXJzaW9uPSIxLjEiIGlkPSJDb250YWluZXIiIHhtbG5zPSJodHRwOi8vd3d3LnczLm9yZy8yMDAwL3N2ZyIgeG1sbnM6eGxpbms9Imh0dHA6Ly93d3cudzMub3JnLzE5OTkveGxpbmsiIHg9IjBweCIgeT0iMHB4IiB2aWV3Qm94PSIwIDAgMTYxLjkgMTYyIiBlbmFibGUtYmFja2dyb3VuZD0ibmV3IDAgMCAxNjEuOSAxNjIiIHhtbDpzcGFjZT0icHJlc2VydmUiPiYjeGE7PHBhdGggZmlsbD0iIzMxMkQyQSIgZD0iTTE1Mi44LDE1Mi45SDlWOS4yaDE0My44VjE1Mi45eiBNMTgsMTQzLjloMTI1LjhWMTguMkgxOFYxNDMuOXogTTEyOS4xLDEzMi4zSDMyLjlWOTcuNGg5Ni4zVjEzMi4zeiAgIE00MS45LDEyMy4zaDc4LjN2LTE2LjlINDEuOVYxMjMuM3ogTTEwNS44LDExMC4yYy0yLjYsMC00LjcsMi4xLTQuNyw0LjdjMCwyLjYsMi4xLDQuNyw0LjcsNC43YzIuNiwwLDQuNy0yLjEsNC43LTQuNyAgQzExMC41LDExMi4zLDEwOC40LDExMC4yLDEwNS44LDExMC4yeiBNMzMuMSw5MGg0Mi42VjYzLjlIMzMuMVY5MHogTTUwLjQsODNWNzAuOWg3LjdWODNINTAuNHogTTY4LjcsODNoLTYuNlY3MC45aDYuNlY4M3ogICBNNDAuMSw3MC45aDYuM1Y4M2gtNi4zVjcwLjl6IE0zMy4xLDU3aDQyLjZWMzAuOEgzMy4xVjU3eiBNNTAuNCw1MFYzNy44aDcuN1Y1MEg1MC40eiBNNjguNyw1MGgtNi42VjM3LjhoNi42VjUweiBNNDAuMSwzNy44aDYuMyAgVjUwaC02LjNWMzcuOHogTTg2LjgsOTBoNDIuNlY2My45SDg2LjhWOTB6IE0xMDQsODNWNzAuOWg3LjdWODNIMTA0eiBNMTIyLjMsODNoLTYuNlY3MC45aDYuNlY4M3ogTTkzLjgsNzAuOWg2LjJWODNoLTYuMlY3MC45eiAgIE04Ni44LDMwLjhWNTdoNDIuNlYzMC44SDg2Ljh6IE0xMTEuNywzNy44VjUwSDEwNFYzNy44SDExMS43eiBNOTMuOCwzNy44aDYuMlY1MGgtNi4yVjM3Ljh6IE0xMjIuMyw1MGgtNi42VjM3LjhoNi42VjUweiIvPiYjeGE7PC9zdmc+;labelBackgroundColor=none;align=center;" parent="Mvm1oyz63STRThyXKM0V-19" vertex="1">
          <mxGeometry x="180" y="259" width="50" height="50" as="geometry" />
        </mxCell>
        <mxCell id="JLlgExNKZI0VBw3Vx1Ag-37" value="node-2 (VM)" style="shape=image;verticalLabelPosition=bottom;verticalAlign=top;imageAspect=0;aspect=fixed;image=data:image/svg+xml,PHN2ZyB2ZXJzaW9uPSIxLjEiIGlkPSJDb250YWluZXIiIHhtbG5zPSJodHRwOi8vd3d3LnczLm9yZy8yMDAwL3N2ZyIgeG1sbnM6eGxpbms9Imh0dHA6Ly93d3cudzMub3JnLzE5OTkveGxpbmsiIHg9IjBweCIgeT0iMHB4IiB2aWV3Qm94PSIwIDAgMTYxLjkgMTYyIiBlbmFibGUtYmFja2dyb3VuZD0ibmV3IDAgMCAxNjEuOSAxNjIiIHhtbDpzcGFjZT0icHJlc2VydmUiPiYjeGE7PHBhdGggZmlsbD0iIzMxMkQyQSIgZD0iTTE1Mi44LDE1Mi45SDlWOS4yaDE0My44VjE1Mi45eiBNMTgsMTQzLjloMTI1LjhWMTguMkgxOFYxNDMuOXogTTEyOS4xLDEzMi4zSDMyLjlWOTcuNGg5Ni4zVjEzMi4zeiAgIE00MS45LDEyMy4zaDc4LjN2LTE2LjlINDEuOVYxMjMuM3ogTTEwNS44LDExMC4yYy0yLjYsMC00LjcsMi4xLTQuNyw0LjdjMCwyLjYsMi4xLDQuNyw0LjcsNC43YzIuNiwwLDQuNy0yLjEsNC43LTQuNyAgQzExMC41LDExMi4zLDEwOC40LDExMC4yLDEwNS44LDExMC4yeiBNMzMuMSw5MGg0Mi42VjYzLjlIMzMuMVY5MHogTTUwLjQsODNWNzAuOWg3LjdWODNINTAuNHogTTY4LjcsODNoLTYuNlY3MC45aDYuNlY4M3ogICBNNDAuMSw3MC45aDYuM1Y4M2gtNi4zVjcwLjl6IE0zMy4xLDU3aDQyLjZWMzAuOEgzMy4xVjU3eiBNNTAuNCw1MFYzNy44aDcuN1Y1MEg1MC40eiBNNjguNyw1MGgtNi42VjM3LjhoNi42VjUweiBNNDAuMSwzNy44aDYuMyAgVjUwaC02LjNWMzcuOHogTTg2LjgsOTBoNDIuNlY2My45SDg2LjhWOTB6IE0xMDQsODNWNzAuOWg3LjdWODNIMTA0eiBNMTIyLjMsODNoLTYuNlY3MC45aDYuNlY4M3ogTTkzLjgsNzAuOWg2LjJWODNoLTYuMlY3MC45eiAgIE04Ni44LDMwLjhWNTdoNDIuNlYzMC44SDg2Ljh6IE0xMTEuNywzNy44VjUwSDEwNFYzNy44SDExMS43eiBNOTMuOCwzNy44aDYuMlY1MGgtNi4yVjM3Ljh6IE0xMjIuMyw1MGgtNi42VjM3LjhoNi42VjUweiIvPiYjeGE7PC9zdmc+;labelBackgroundColor=none;align=center;" parent="Mvm1oyz63STRThyXKM0V-19" vertex="1">
          <mxGeometry x="380" y="259" width="50" height="50" as="geometry" />
        </mxCell>
        <mxCell id="JLlgExNKZI0VBw3Vx1Ag-44" value="Ingress controller, Service mesh, Pods, etc." style="rounded=1;whiteSpace=wrap;html=1;labelBackgroundColor=none;strokeWidth=1;align=center;fontColor=#333333;fillColor=#DFDDD9;strokeColor=#F4F3EF;" parent="Mvm1oyz63STRThyXKM0V-19" vertex="1">
          <mxGeometry x="210" y="343" width="400" height="40" as="geometry" />
        </mxCell>
        <mxCell id="JLlgExNKZI0VBw3Vx1Ag-46" value="node-3 (VM)" style="shape=image;verticalLabelPosition=bottom;verticalAlign=top;imageAspect=0;aspect=fixed;image=data:image/svg+xml,PHN2ZyB2ZXJzaW9uPSIxLjEiIGlkPSJDb250YWluZXIiIHhtbG5zPSJodHRwOi8vd3d3LnczLm9yZy8yMDAwL3N2ZyIgeG1sbnM6eGxpbms9Imh0dHA6Ly93d3cudzMub3JnLzE5OTkveGxpbmsiIHg9IjBweCIgeT0iMHB4IiB2aWV3Qm94PSIwIDAgMTYxLjkgMTYyIiBlbmFibGUtYmFja2dyb3VuZD0ibmV3IDAgMCAxNjEuOSAxNjIiIHhtbDpzcGFjZT0icHJlc2VydmUiPiYjeGE7PHBhdGggZmlsbD0iIzMxMkQyQSIgZD0iTTE1Mi44LDE1Mi45SDlWOS4yaDE0My44VjE1Mi45eiBNMTgsMTQzLjloMTI1LjhWMTguMkgxOFYxNDMuOXogTTEyOS4xLDEzMi4zSDMyLjlWOTcuNGg5Ni4zVjEzMi4zeiAgIE00MS45LDEyMy4zaDc4LjN2LTE2LjlINDEuOVYxMjMuM3ogTTEwNS44LDExMC4yYy0yLjYsMC00LjcsMi4xLTQuNyw0LjdjMCwyLjYsMi4xLDQuNyw0LjcsNC43YzIuNiwwLDQuNy0yLjEsNC43LTQuNyAgQzExMC41LDExMi4zLDEwOC40LDExMC4yLDEwNS44LDExMC4yeiBNMzMuMSw5MGg0Mi42VjYzLjlIMzMuMVY5MHogTTUwLjQsODNWNzAuOWg3LjdWODNINTAuNHogTTY4LjcsODNoLTYuNlY3MC45aDYuNlY4M3ogICBNNDAuMSw3MC45aDYuM1Y4M2gtNi4zVjcwLjl6IE0zMy4xLDU3aDQyLjZWMzAuOEgzMy4xVjU3eiBNNTAuNCw1MFYzNy44aDcuN1Y1MEg1MC40eiBNNjguNyw1MGgtNi42VjM3LjhoNi42VjUweiBNNDAuMSwzNy44aDYuMyAgVjUwaC02LjNWMzcuOHogTTg2LjgsOTBoNDIuNlY2My45SDg2LjhWOTB6IE0xMDQsODNWNzAuOWg3LjdWODNIMTA0eiBNMTIyLjMsODNoLTYuNlY3MC45aDYuNlY4M3ogTTkzLjgsNzAuOWg2LjJWODNoLTYuMlY3MC45eiAgIE04Ni44LDMwLjhWNTdoNDIuNlYzMC44SDg2Ljh6IE0xMTEuNywzNy44VjUwSDEwNFYzNy44SDExMS43eiBNOTMuOCwzNy44aDYuMlY1MGgtNi4yVjM3Ljh6IE0xMjIuMyw1MGgtNi42VjM3LjhoNi42VjUweiIvPiYjeGE7PC9zdmc+;labelBackgroundColor=none;align=center;" parent="Mvm1oyz63STRThyXKM0V-19" vertex="1">
          <mxGeometry x="570" y="259" width="50" height="50" as="geometry" />
        </mxCell>
        <mxCell id="5z3BjopYQKt2J5N__x-G-18" style="edgeStyle=orthogonalEdgeStyle;curved=1;orthogonalLoop=1;jettySize=auto;html=1;exitX=0.75;exitY=0;exitDx=0;exitDy=0;endArrow=none;endFill=0;entryX=0.5;entryY=1;entryDx=0;entryDy=0;strokeColor=#3399FF;dashed=1;dashPattern=1 4;" parent="Mvm1oyz63STRThyXKM0V-19" source="JLlgExNKZI0VBw3Vx1Ag-64" target="JLlgExNKZI0VBw3Vx1Ag-35" edge="1">
          <mxGeometry relative="1" as="geometry">
            <Array as="points">
              <mxPoint x="358" y="790" />
              <mxPoint x="180" y="790" />
              <mxPoint x="180" y="440" />
              <mxPoint x="151" y="440" />
            </Array>
          </mxGeometry>
        </mxCell>
        <mxCell id="JLlgExNKZI0VBw3Vx1Ag-64" value="CI/CD" style="shape=image;verticalLabelPosition=bottom;verticalAlign=top;imageAspect=0;aspect=fixed;image=data:image/svg+xml,PHN2ZyB2ZXJzaW9uPSIxLjEiIGlkPSJXb3JrRmxvdyIgeG1sbnM9Imh0dHA6Ly93d3cudzMub3JnLzIwMDAvc3ZnIiB4bWxuczp4bGluaz0iaHR0cDovL3d3dy53My5vcmcvMTk5OS94bGluayIgeD0iMHB4IiB5PSIwcHgiIHZpZXdCb3g9IjAgMCAxNjEuOSAxNjIiIGVuYWJsZS1iYWNrZ3JvdW5kPSJuZXcgMCAwIDE2MS45IDE2MiIgeG1sOnNwYWNlPSJwcmVzZXJ2ZSI+JiN4YTs8cGF0aCBmaWxsPSIjMzEyRDJBIiBkPSJNMTUyLjcsNjcuOFYzMmgtMzUuOHYxMi41Yy03LjYsMC41LTE1LjgsNC4xLTE1LjgsMTcuNnYxNC4xSDg3Ljh2MzUuOGgxMi44Yy0xLjIsNy43LTUsMTIuMy0xNS44LDEyLjMgIGMtMTAsMC0xMy00LjgtMTMtMjAuNFY0OS4yYzAtNy43LDAtMzEuMi0yNC42LTMxLjJjLTkuNywwLTE3LjEsNC44LTIxLjMsMTMuOGMtMi44LDYuMS0zLjUsMTIuNS0zLjYsMTYuMUg5djM1LjhoMTMuMlYxMDdoLTEzdjM1LjggIEg0NVYxMDdIMzEuMlY4My43aDEzLjZWNDcuOUgzMS4yQzMxLjUsNDIsMzMuNSwyNyw0Ny4yLDI3YzkuNCwwLDE1LjYsMy44LDE1LjYsMjIuMlYxMDRjMCw5LjYsMCwyOS40LDIyLDI5LjQgIGMxOS45LDAsMjMuOS0xMy4yLDI0LjktMjEuM2gxMy45Vjc2LjNoLTEzLjVWNjIuMWMwLTQuNSwwLjYtOCw2LjgtOC42djE0LjNIMTUyLjd6IE0zNiwxMzMuOEgxOC4yVjExNkgzNlYxMzMuOHogTTM1LjgsNzQuN0gxOCAgVjU2LjloMTcuOFY3NC43eiBNMTE0LjYsMTAzLjFIOTYuOFY4NS4zaDE3LjhWMTAzLjF6IE0xMjUuOSw0MWgxNy44djE3LjhoLTE3LjhWNDF6Ii8+JiN4YTs8L3N2Zz4=;labelBackgroundColor=#F4F3EF;strokeColor=#F4F3EF;strokeWidth=1;fillColor=#DFDDD9;align=center;" parent="Mvm1oyz63STRThyXKM0V-19" vertex="1">
          <mxGeometry x="320" y="900" width="50" height="50" as="geometry" />
        </mxCell>
        <mxCell id="JLlgExNKZI0VBw3Vx1Ag-63" value="Active Directory" style="pointerEvents=1;shadow=0;dashed=0;html=1;strokeColor=none;fillColor=#505050;labelPosition=center;verticalLabelPosition=bottom;verticalAlign=top;outlineConnect=0;align=center;shape=mxgraph.office.servers.active_directory_federation_services_server_blue;labelBackgroundColor=#F4F3EF;" parent="Mvm1oyz63STRThyXKM0V-19" vertex="1">
          <mxGeometry x="414" y="904" width="34.55" height="43" as="geometry" />
        </mxCell>
        <mxCell id="JLlgExNKZI0VBw3Vx1Ag-106" style="edgeStyle=orthogonalEdgeStyle;curved=1;rounded=1;orthogonalLoop=1;jettySize=auto;html=1;exitX=0.5;exitY=1;exitDx=0;exitDy=0;startArrow=none;startFill=0;endArrow=none;endFill=0;strokeColor=#3399FF;dashed=1;dashPattern=1 4;" parent="Mvm1oyz63STRThyXKM0V-19" source="JLlgExNKZI0VBw3Vx1Ag-29" target="JLlgExNKZI0VBw3Vx1Ag-63" edge="1">
          <mxGeometry relative="1" as="geometry" />
        </mxCell>
        <mxCell id="JLlgExNKZI0VBw3Vx1Ag-119" value="Federation" style="edgeLabel;html=1;align=center;verticalAlign=middle;resizable=0;points=[];" parent="JLlgExNKZI0VBw3Vx1Ag-106" vertex="1" connectable="0">
          <mxGeometry x="0.5218" y="-12" relative="1" as="geometry">
            <mxPoint as="offset" />
          </mxGeometry>
        </mxCell>
        <mxCell id="JLlgExNKZI0VBw3Vx1Ag-29" value="Identity&#xa;Cloud Service" style="shape=image;verticalLabelPosition=bottom;verticalAlign=top;imageAspect=0;aspect=fixed;image=data:image/svg+xml,PHN2ZyB2ZXJzaW9uPSIxLjEiIGlkPSJJRF9BY2Nlc3MiIHhtbG5zPSJodHRwOi8vd3d3LnczLm9yZy8yMDAwL3N2ZyIgeG1sbnM6eGxpbms9Imh0dHA6Ly93d3cudzMub3JnLzE5OTkveGxpbmsiIHg9IjBweCIgeT0iMHB4IiB2aWV3Qm94PSIwIDAgMTYxLjkgMTYyIiBlbmFibGUtYmFja2dyb3VuZD0ibmV3IDAgMCAxNjEuOSAxNjIiIHhtbDpzcGFjZT0icHJlc2VydmUiPiYjeGE7PGc+JiN4YTsJPHBhdGggZmlsbD0iIzMxMkQyQSIgZD0iTTYwLjMsMzguNmMwLTcuNS02LjEtMTMuNy0xMy43LTEzLjdTMzMsMzEuMSwzMywzOC42czYuMSwxMy43LDEzLjcsMTMuN1M2MC4zLDQ2LjEsNjAuMywzOC42eiBNNDAsMzguNiAgIGMwLTMuNywzLTYuNyw2LjctNi43czYuNywzLDYuNyw2LjdzLTMsNi43LTYuNyw2LjdTNDAsNDIuMyw0MCwzOC42eiIvPiYjeGE7CTxwYXRoIGZpbGw9IiMzMTJEMkEiIGQ9Ik02Ny44LDc1Ljh2LTEuNmMwLTEwLjctOC43LTE5LjMtMTkuMy0xOS4zaC0zLjZjLTEwLjcsMC0xOS4zLDguNy0xOS4zLDE5LjN2MS42aDd2LTEuNiAgIGMwLTYuOCw1LjUtMTIuMywxMi4zLTEyLjNoMy42YzYuOCwwLDEyLjMsNS41LDEyLjMsMTIuM3YxLjZINjcuOHoiLz4mI3hhOwk8cG9seWdvbiBmaWxsPSIjMzEyRDJBIiBwb2ludHM9IjE4LjIsODIuNCAxOC4yLDE4LjMgMTE1LjMsMTguMyAxMTUuMyw2My4zIDEyMC41LDYxLjEgMTI0LjMsNjIuNyAxMjQuMyw5LjMgOS4yLDkuMyA5LjIsOTEuNCAgICA4Myw5MS40IDgzLDgyLjQgICIvPiYjeGE7CTxwb2x5Z29uIGZpbGw9IiMzMTJEMkEiIHBvaW50cz0iOTMuNiw3MC4zIDk2LjcsNjcuMiA5Miw2Mi41IDk3LDU3LjYgOTMuOSw1NC41IDg5LDU5LjUgODQuMyw1NC44IDgxLjIsNTcuOCA4NS45LDYyLjUgODAuOSw2Ny41ICAgIDg0LDcwLjYgODksNjUuNiAgIi8+JiN4YTsJPHBvbHlnb24gZmlsbD0iIzMxMkQyQSIgcG9pbnRzPSI4NC4yLDM1LjMgODAuOSwzOC4xIDg3LjcsNDYuMiAxMDAuMiwzMi40IDk3LDI5LjUgODcuOCwzOS42ICAiLz4mI3hhOwk8cGF0aCBmaWxsPSIjMzEyRDJBIiBkPSJNMTUzLDExMS41di0zMGwtMzIuOC0xNC4xTDg3LjQsODEuNWwwLjEsMzEuOGwwLjEsMC40YzQuOCwyNy43LDI5LjksMzcuOSwzMC45LDM4LjRsMS45LDAuOGwxLjgtMC45ICAgQzE1MywxMzYuMiwxNTMsMTEyLjUsMTUzLDExMS41eiBNMTQ0LDExMS42YzAsMC43LTAuMywxNi0xOS40LDI4LjZ2LTM3LjJoLTl2MzcuM2MtNi42LTQuMy0xNi4zLTEzLTE5LTI3LjdsLTAuMS0yNS4xbDE5LjEtOC4yVjk1ICAgaDlWNzkuMWwxOS40LDguM1YxMTEuNnoiLz4mI3hhOzwvZz4mI3hhOzwvc3ZnPg==;align=center;labelBackgroundColor=#F4F3EF;" parent="Mvm1oyz63STRThyXKM0V-19" vertex="1">
          <mxGeometry x="290" y="671.25" width="46" height="46" as="geometry" />
        </mxCell>
        <mxCell id="JLlgExNKZI0VBw3Vx1Ag-35" value="Managed&#xa;Kubernetes&#xa;(OKE)" style="shape=image;verticalLabelPosition=bottom;verticalAlign=top;imageAspect=0;aspect=fixed;image=data:image/svg+xml,PHN2ZyB2ZXJzaW9uPSIxLjEiIGlkPSJPS0VfQUxUMiIgeG1sbnM9Imh0dHA6Ly93d3cudzMub3JnLzIwMDAvc3ZnIiB4bWxuczp4bGluaz0iaHR0cDovL3d3dy53My5vcmcvMTk5OS94bGluayIgeD0iMHB4IiB5PSIwcHgiIHZpZXdCb3g9IjAgMCAxNjEuOSAxNjIiIGVuYWJsZS1iYWNrZ3JvdW5kPSJuZXcgMCAwIDE2MS45IDE2MiIgeG1sOnNwYWNlPSJwcmVzZXJ2ZSI+JiN4YTs8cGF0aCBmaWxsPSIjMzEyRDJBIiBkPSJNMzMuOSw5Ni4zYzAsMC40LDIuNSwzOC4zLDQ2LjgsMzguM2MwLDAsMC4xLDAsMC4xLDBjNDAuMSwwLDQ3LjItMzYuNiw0Ny4zLTM3bDAuNy0zLjhsLTIuNS0wLjhWNjAuNWgtMTMuNyAgVjMzSDg0LjloLTcuOEg0OS4zdjI3LjZIMzUuOHYzMS42bC0yLjEsMC43TDMzLjksOTYuM3ogTTQzLjQsOTkuMWwzMy44LTExLjJ2MzcuNkM1MS4zLDEyNCw0NC45LDEwNi42LDQzLjQsOTkuMXogTTkwLjgsODAuNyAgbC0xMC0zLjVsLTkuNCwzLjFWNjguNWg1LjdoNy44aDUuOVY4MC43eiBNODQuMSwxMjUuNVY4Ny45bDM0LjEsMTEuN0MxMTUuNywxMDcuMywxMDcuNCwxMjQsODQuMSwxMjUuNXogTTExOC4zLDY4LjV2MjEuNiAgbC0xOS42LTYuN1Y2OC41aDEzLjlIMTE4LjN6IE04NS4xLDQxaDE5LjZ2MTkuNmgtNS45aC04aC01LjdWNDF6IE01Ny4zLDQxaDE5LjZ2MTkuNmgtNS41aC04LjJoLTUuOVY0MXogTTQzLjgsNjguNWg1LjVoMTMuOVY4MyAgbC0xOS40LDYuNFY2OC41eiBNOSw5LjJ2MTQzLjZoMTQzLjhWOS4ySDl6IE0xNDMuOCwxNDMuOUgxOFYxOC4yaDEyNS44VjE0My45eiIvPiYjeGE7PC9zdmc+;labelBackgroundColor=#DFDDD9;align=center;imageBackground=#DFDDD9;fontStyle=0" parent="Mvm1oyz63STRThyXKM0V-19" vertex="1">
          <mxGeometry x="130" y="380" width="42" height="42" as="geometry" />
        </mxCell>
        <mxCell id="JLlgExNKZI0VBw3Vx1Ag-100" style="edgeStyle=orthogonalEdgeStyle;orthogonalLoop=1;jettySize=auto;html=1;startArrow=none;startFill=0;endArrow=none;endFill=0;strokeColor=#330000;entryX=0.463;entryY=1.05;entryDx=0;entryDy=0;entryPerimeter=0;exitX=0.5;exitY=0;exitDx=0;exitDy=0;" parent="Mvm1oyz63STRThyXKM0V-19" source="5z3BjopYQKt2J5N__x-G-4" edge="1">
          <mxGeometry relative="1" as="geometry">
            <mxPoint x="466" y="670" as="sourcePoint" />
            <mxPoint x="387.24" y="384" as="targetPoint" />
            <Array as="points">
              <mxPoint x="405" y="460" />
              <mxPoint x="387" y="460" />
            </Array>
          </mxGeometry>
        </mxCell>
        <mxCell id="5z3BjopYQKt2J5N__x-G-4" value="Database CS &#xa;(VM)" style="shape=image;verticalLabelPosition=bottom;verticalAlign=top;imageAspect=0;aspect=fixed;image=data:image/svg+xml,PHN2ZyB2ZXJzaW9uPSIxLjEiIGlkPSJEYXRhYmFzZV9TZXJ2aWNlIiB4bWxucz0iaHR0cDovL3d3dy53My5vcmcvMjAwMC9zdmciIHhtbG5zOnhsaW5rPSJodHRwOi8vd3d3LnczLm9yZy8xOTk5L3hsaW5rIiB4PSIwcHgiIHk9IjBweCIgdmlld0JveD0iMCAwIDE2MS45IDE2MiIgZW5hYmxlLWJhY2tncm91bmQ9Im5ldyAwIDAgMTYxLjkgMTYyIiB4bWw6c3BhY2U9InByZXNlcnZlIj4mI3hhOzxwYXRoIGZpbGw9IiMzMTJEMkEiIGQ9Ik0xNTEuNiw5OS45VjYyLjFoLTM3Ljh2MTQuMmgtMTMuOFY2Mi4xSDg1LjVWNDcuNkgxMDBWOS44SDYyLjJ2MzcuOGgxNC4ydjE0LjZINjIuM3YxNC4ySDQ3LjJWNjIuMUg5LjQgIHYzNy44aDE0LjV2MTQuN0g5LjZ2MzcuOGgzNy44di0zNy44SDMyLjlWOTkuOWgxNC4zVjg1LjNoMTUuMXYxNC42aDE0LjJWMTM2aDM3LjN2MTYuNGgzNy44di0zNy44aC0xNC40Vjk5LjlIMTUxLjZ6IE03MS4yLDE4LjhIOTEgIHYxOS44SDcxLjJWMTguOHogTTM4LjQsMTQzLjRIMTguNnYtMTkuOGgxOS44VjE0My40eiBNMzguMiw5MC45SDE4LjRWNzEuMWgxOS44VjkwLjl6IE0xMjIuOCw3MS4xaDE5Ljh2MTkuOGgtMTkuOFY3MS4xeiAgIE03MS4zLDcxLjFoMTkuOHYxOS44SDcxLjNWNzEuMXogTTE0Mi42LDE0My40aC0xOS44di0xOS44aDE5LjhWMTQzLjR6IE0xMjguMiwxMTQuNmgtMTQuNFYxMjdIODUuNVY5OS45aDE0LjZWODUuM2gxMy44djE0LjZoMTQuNCAgVjExNC42eiIvPiYjeGE7PC9zdmc+" parent="Mvm1oyz63STRThyXKM0V-19" vertex="1">
          <mxGeometry x="384" y="520" width="42" height="42" as="geometry" />
        </mxCell>
        <mxCell id="5z3BjopYQKt2J5N__x-G-9" value="Object &#xa;Storage" style="shape=image;verticalLabelPosition=bottom;verticalAlign=top;imageAspect=0;aspect=fixed;image=data:image/svg+xml,PHN2ZyB2ZXJzaW9uPSIxLjEiIGlkPSJPYmplY3RfU3RvcmFnZSIgeG1sbnM9Imh0dHA6Ly93d3cudzMub3JnLzIwMDAvc3ZnIiB4bWxuczp4bGluaz0iaHR0cDovL3d3dy53My5vcmcvMTk5OS94bGluayIgeD0iMHB4IiB5PSIwcHgiIHZpZXdCb3g9IjAgMCAxNjEuOSAxNjIiIGVuYWJsZS1iYWNrZ3JvdW5kPSJuZXcgMCAwIDE2MS45IDE2MiIgeG1sOnNwYWNlPSJwcmVzZXJ2ZSI+JiN4YTs8cGF0aCBmaWxsPSIjMzEyRDJBIiBkPSJNMTUzLjEsMTUyLjVIOS40VjI2LjhoMTQzLjhWMTUyLjV6IE0xOC40LDE0My41aDEyNS44VjM1LjhIMTguNFYxNDMuNXogTTE1Mi42LDkuMUg4Ljl2OWgxNDMuOFY5LjF6ICAgTTExNS41LDg3LjRsLTIzLjksMEw3OS43LDY2LjdsMTItMjAuN2wyMy45LDBsMTEuOSwyMC43TDExNS41LDg3LjR6IE05NS43LDgwLjRsMTUuOCwwbDcuOS0xMy43bC03LjktMTMuN2wtMTUuOCwwbC03LjksMTMuNyAgTDk1LjcsODAuNHogTTgwLjMsMTM0LjljLTExLjMsMC0yMC42LTkuMi0yMC42LTIwLjZzOS4yLTIwLjYsMjAuNi0yMC42czIwLjYsOS4yLDIwLjYsMjAuNlM5MS42LDEzNC45LDgwLjMsMTM0Ljl6IE04MC4zLDEwMC44ICBjLTcuNSwwLTEzLjYsNi4xLTEzLjYsMTMuNnM2LjEsMTMuNiwxMy42LDEzLjZjNy41LDAsMTMuNi02LjEsMTMuNi0xMy42Uzg3LjcsMTAwLjgsODAuMywxMDAuOHogTTc5LjUsODYuM0gzMy43bDIyLjgtNDEuNyAgTDc5LjUsODYuM3ogTTQ1LjUsNzkuM2gyMi4yTDU2LjUsNTkuMkw0NS41LDc5LjN6Ii8+JiN4YTs8L3N2Zz4=;labelBackgroundColor=#F4F3EF;" parent="Mvm1oyz63STRThyXKM0V-19" vertex="1">
          <mxGeometry x="210" y="672.5" width="42" height="42" as="geometry" />
        </mxCell>
        <mxCell id="5z3BjopYQKt2J5N__x-G-11" style="edgeStyle=orthogonalEdgeStyle;rounded=0;orthogonalLoop=1;jettySize=auto;html=1;exitX=0.5;exitY=0;exitDx=0;exitDy=0;entryX=0.5;entryY=1;entryDx=0;entryDy=0;curved=1;strokeColor=#3399FF;dashed=1;dashPattern=1 4;endArrow=none;endFill=0;" parent="Mvm1oyz63STRThyXKM0V-19" source="JLlgExNKZI0VBw3Vx1Ag-64" target="5z3BjopYQKt2J5N__x-G-8" edge="1">
          <mxGeometry relative="1" as="geometry" />
        </mxCell>
        <mxCell id="5z3BjopYQKt2J5N__x-G-12" value="Some&#xa;on-premise&#xa;workload" style="shape=image;verticalLabelPosition=bottom;verticalAlign=top;imageAspect=0;aspect=fixed;image=data:image/svg+xml,PHN2ZyB2ZXJzaW9uPSIxLjEiIGlkPSJDdXN0b21lcl9QcmVtaXNlX0FMVCIgeG1sbnM9Imh0dHA6Ly93d3cudzMub3JnLzIwMDAvc3ZnIiB4bWxuczp4bGluaz0iaHR0cDovL3d3dy53My5vcmcvMTk5OS94bGluayIgeD0iMHB4IiB5PSIwcHgiIHZpZXdCb3g9IjAgMCAxNjEuOSAxNjIiIGVuYWJsZS1iYWNrZ3JvdW5kPSJuZXcgMCAwIDE2MS45IDE2MiIgeG1sOnNwYWNlPSJwcmVzZXJ2ZSI+JiN4YTs8Zz4mI3hhOwk8cGF0aCBmaWxsPSIjMzEyRDJBIiBkPSJNNTMuNCwxNy41djI2Ljl2OHY3LjVjMC40LDAsMC45LDAsMS4zLDBjMi4zLDAsNC42LDAuMyw2LjcsMC45di04LjNoNjcuNnYxOC4ySDc1LjQgICBjMS44LDIuNiwzLjEsNS41LDMuOSw4LjZoNDkuOHYxOC4ySDc2LjdjLTEuOCwzLjItNC4yLDUuOS03LjIsOGg2Ny41Vjc5LjJ2LTguNlY1Mi40di04VjE3LjVINTMuNHogTTEyOS4xLDQ0LjRINjEuNFYyNS41aDY3LjYgICBWNDQuNHoiLz4mI3hhOwk8Zz4mI3hhOwkJPGc+JiN4YTsJCQk8Zz4mI3hhOwkJCQk8Y2lyY2xlIGZpbGw9IiMzMTJEMkEiIGN4PSIxMTcuMSIgY3k9Ijg4LjYiIHI9IjMuMyIvPiYjeGE7CQkJPC9nPiYjeGE7CQkJPGc+JiN4YTsJCQkJPGNpcmNsZSBmaWxsPSIjMzEyRDJBIiBjeD0iMTE3LjEiIGN5PSI2MS44IiByPSIzLjMiLz4mI3hhOwkJCTwvZz4mI3hhOwkJCTxnPiYjeGE7CQkJCTxjaXJjbGUgZmlsbD0iIzMxMkQyQSIgY3g9IjExNy4xIiBjeT0iMzUuNCIgcj0iMy4zIi8+JiN4YTsJCQk8L2c+JiN4YTsJCTwvZz4mI3hhOwkJPGc+JiN4YTsJCQk8Zz4mI3hhOwkJCQk8cGF0aCBmaWxsPSIjMzEyRDJBIiBkPSJNNTQuNywxMDUuNGMtMTEuNSwwLTIwLjgtOS4zLTIwLjgtMjAuOGMwLTExLjUsOS4zLTIwLjgsMjAuOC0yMC44YzExLjUsMCwyMC44LDkuMywyMC44LDIwLjggICAgICBDNzUuNiw5Ni4xLDY2LjIsMTA1LjQsNTQuNywxMDUuNHogTTU0LjcsNzIuOGMtNi41LDAtMTEuOCw1LjMtMTEuOCwxMS44YzAsNi41LDUuMywxMS44LDExLjgsMTEuOHMxMS44LTUuMywxMS44LTExLjggICAgICBDNjYuNiw3OC4xLDYxLjMsNzIuOCw1NC43LDcyLjh6Ii8+JiN4YTsJCQk8L2c+JiN4YTsJCQk8Zz4mI3hhOwkJCQk8cGF0aCBmaWxsPSIjMzEyRDJBIiBkPSJNODcuNiwxNDQuOWgtOVYxMzljMC0xMS42LTkuNC0yMS0yMS0yMWgtNS44Yy0xMS42LDAtMjEsOS40LTIxLDIxdjUuOGgtOVYxMzljMC0xNi41LDEzLjQtMzAsMzAtMzBoNS44ICAgICAgYzE2LjUsMCwzMCwxMy40LDMwLDMwVjE0NC45eiIvPiYjeGE7CQkJPC9nPiYjeGE7CQk8L2c+JiN4YTsJPC9nPiYjeGE7PC9nPiYjeGE7PC9zdmc+;labelBackgroundColor=#F4F3EF;" parent="Mvm1oyz63STRThyXKM0V-19" vertex="1">
          <mxGeometry x="500" y="898" width="52" height="52" as="geometry" />
        </mxCell>
        <mxCell id="5z3BjopYQKt2J5N__x-G-8" value="Container&#xa;Registry" style="shape=image;verticalLabelPosition=bottom;verticalAlign=top;imageAspect=0;aspect=fixed;image=data:image/svg+xml,PHN2ZyB2ZXJzaW9uPSIxLjEiIGlkPSJPS0VfQUxUMiIgeG1sbnM9Imh0dHA6Ly93d3cudzMub3JnLzIwMDAvc3ZnIiB4bWxuczp4bGluaz0iaHR0cDovL3d3dy53My5vcmcvMTk5OS94bGluayIgeD0iMHB4IiB5PSIwcHgiIHZpZXdCb3g9IjAgMCAxNjEuOSAxNjIiIGVuYWJsZS1iYWNrZ3JvdW5kPSJuZXcgMCAwIDE2MS45IDE2MiIgeG1sOnNwYWNlPSJwcmVzZXJ2ZSI+JiN4YTs8cGF0aCBmaWxsPSIjMzEyRDJBIiBkPSJNNzEuNiwxMTMuOGgxOS4yaDloMjguNFY3Ni40aC0xNC4xVjQ4SDg1LjVoLTguOEg0OC4xdjI4LjRoLTE0djM3LjRoMjguMkg3MS42eiBNOTAuOCwxMDQuOEg3MS42Vjg1LjRoNS4xICBoOC44aDUuM1YxMDQuOHogTTExOS4yLDg1LjR2MTkuNEg5OS44Vjg1LjRoMTQuM0gxMTkuMnogTTg1LjcsNTdoMTkuNHYxOS40aC01LjNoLTloLTUuMVY1N3ogTTU3LjEsNTdoMTkuNHYxOS40aC01aC05LjJoLTUuM1Y1N3ogICBNNDMuMiwxMDQuOFY4NS40aDVoMTQuM3YxOS40SDQzLjJ6IE05LDkuMnYxNDMuNmgxNDMuOFY5LjJIOXogTTE0My44LDE0My45SDE4VjE4LjJoMTI1LjhWMTQzLjl6Ii8+JiN4YTs8L3N2Zz4=;labelBackgroundColor=#F4F3EF;" parent="Mvm1oyz63STRThyXKM0V-19" vertex="1">
          <mxGeometry x="131.5" y="671.25" width="40.5" height="40.5" as="geometry" />
        </mxCell>
        <mxCell id="JLlgExNKZI0VBw3Vx1Ag-2" value="Labels &amp; comment layer" style="locked=1;" parent="0" />
        <mxCell id="JLlgExNKZI0VBw3Vx1Ag-3" value="&lt;span style=&quot;color: rgb(63 , 58 , 54) ; font-size: 24px&quot;&gt;&lt;font style=&quot;font-size: 24px&quot;&gt;Project name&lt;/font&gt;&lt;/span&gt;&lt;font style=&quot;font-size: 24px&quot; color=&quot;#3f3a36&quot;&gt;&lt;b&gt;&lt;font style=&quot;font-size: 24px&quot;&gt;&lt;br&gt;&lt;/font&gt;&lt;/b&gt;&lt;span style=&quot;font-size: 22px&quot;&gt;&lt;b&gt;Company name&lt;/b&gt;&amp;nbsp;&lt;/span&gt;&lt;br&gt;&lt;/font&gt;" style="text;html=1;strokeColor=none;fillColor=none;align=left;verticalAlign=middle;whiteSpace=wrap;rounded=0;" parent="JLlgExNKZI0VBw3Vx1Ag-2" vertex="1">
          <mxGeometry x="20" y="34" width="470" height="60" as="geometry" />
        </mxCell>
        <mxCell id="JLlgExNKZI0VBw3Vx1Ag-5" value="&lt;div&gt;&lt;font color=&quot;#3f3a36&quot; style=&quot;font-size: 12px&quot;&gt;Version: 1.0&lt;/font&gt;&lt;/div&gt;&lt;div&gt;&lt;font color=&quot;#3f3a36&quot; style=&quot;font-size: 12px&quot;&gt;Date: 24. Nov 2020&lt;/font&gt;&lt;/div&gt;&lt;div&gt;&lt;font color=&quot;#3f3a36&quot; style=&quot;font-size: 12px&quot;&gt;Author: Some Name,&amp;nbsp;&lt;/font&gt;&lt;span style=&quot;color: rgb(63 , 58 , 54)&quot;&gt;some@email.com&lt;/span&gt;&lt;/div&gt;" style="text;html=1;strokeColor=none;fillColor=none;align=left;verticalAlign=middle;whiteSpace=wrap;rounded=0;" parent="JLlgExNKZI0VBw3Vx1Ag-2" vertex="1">
          <mxGeometry x="20" y="1120" width="320" height="41" as="geometry" />
        </mxCell>
        <mxCell id="JLlgExNKZI0VBw3Vx1Ag-114" value="Note: Here I can take down notes." style="rounded=0;whiteSpace=wrap;html=1;labelBackgroundColor=none;strokeColor=#d6b656;strokeWidth=1;fillColor=#fff2cc;align=center;" parent="JLlgExNKZI0VBw3Vx1Ag-2" vertex="1">
          <mxGeometry x="30" y="800" width="120" height="40" as="geometry" />
        </mxCell>
        <mxCell id="5z3BjopYQKt2J5N__x-G-16" style="edgeStyle=orthogonalEdgeStyle;orthogonalLoop=1;jettySize=auto;html=1;exitX=0.5;exitY=1;exitDx=0;exitDy=0;entryX=0;entryY=0.5;entryDx=0;entryDy=0;endArrow=classic;endFill=1;strokeColor=#d6b656;fillColor=#fff2cc;curved=1;" parent="JLlgExNKZI0VBw3Vx1Ag-2" source="JLlgExNKZI0VBw3Vx1Ag-114" target="JLlgExNKZI0VBw3Vx1Ag-64" edge="1">
          <mxGeometry relative="1" as="geometry" />
        </mxCell>
      </root>
    </mxGraphModel>
  </diagram>
</mxfile>
